<mxfile host="Electron" modified="2024-08-25T13:55:44.840Z" agent="Mozilla/5.0 (Windows NT 10.0; Win64; x64) AppleWebKit/537.36 (KHTML, like Gecko) draw.io/24.6.4 Chrome/124.0.6367.207 Electron/30.0.6 Safari/537.36" etag="7C7VFuMbwo0eeR7aMZ5T" version="24.6.4" type="device">
  <diagram name="第 1 页" id="fjEhJfBP0nZgCQH0t7_y">
    <mxGraphModel dx="1551" dy="1597" grid="1" gridSize="10" guides="1" tooltips="1" connect="1" arrows="1" fold="1" page="1" pageScale="1" pageWidth="827" pageHeight="1169" math="0" shadow="0">
      <root>
        <mxCell id="0" />
        <mxCell id="1" parent="0" />
        <mxCell id="bN0t6ZyWwbtdrxLPAICQ-1" value="网络通信" style="rounded=0;whiteSpace=wrap;html=1;" parent="1" vertex="1">
          <mxGeometry x="-180" y="110" width="120" height="60" as="geometry" />
        </mxCell>
        <mxCell id="bN0t6ZyWwbtdrxLPAICQ-10" style="edgeStyle=orthogonalEdgeStyle;rounded=0;orthogonalLoop=1;jettySize=auto;html=1;exitX=0.75;exitY=0;exitDx=0;exitDy=0;entryX=0;entryY=0.5;entryDx=0;entryDy=0;endArrow=classic;endFill=1;strokeColor=default;startArrow=classic;startFill=1;" parent="1" source="bN0t6ZyWwbtdrxLPAICQ-2" target="bN0t6ZyWwbtdrxLPAICQ-5" edge="1">
          <mxGeometry relative="1" as="geometry">
            <Array as="points">
              <mxPoint x="240" y="140" />
            </Array>
          </mxGeometry>
        </mxCell>
        <mxCell id="bN0t6ZyWwbtdrxLPAICQ-19" value="聊天数据同步" style="edgeLabel;html=1;align=center;verticalAlign=middle;resizable=0;points=[];" parent="bN0t6ZyWwbtdrxLPAICQ-10" vertex="1" connectable="0">
          <mxGeometry x="0.0888" y="3" relative="1" as="geometry">
            <mxPoint x="63" y="-9" as="offset" />
          </mxGeometry>
        </mxCell>
        <mxCell id="bN0t6ZyWwbtdrxLPAICQ-13" style="edgeStyle=orthogonalEdgeStyle;rounded=0;orthogonalLoop=1;jettySize=auto;html=1;exitX=0.25;exitY=0;exitDx=0;exitDy=0;entryX=1;entryY=0.5;entryDx=0;entryDy=0;endArrow=classic;endFill=1;startArrow=classic;startFill=1;" parent="1" source="bN0t6ZyWwbtdrxLPAICQ-2" target="bN0t6ZyWwbtdrxLPAICQ-1" edge="1">
          <mxGeometry relative="1" as="geometry" />
        </mxCell>
        <mxCell id="Q_2yW_yN46YmQA-kIIIj-2" value="聊天数据同步" style="edgeLabel;html=1;align=center;verticalAlign=middle;resizable=0;points=[];" parent="bN0t6ZyWwbtdrxLPAICQ-13" vertex="1" connectable="0">
          <mxGeometry x="0.4389" relative="1" as="geometry">
            <mxPoint as="offset" />
          </mxGeometry>
        </mxCell>
        <mxCell id="bN0t6ZyWwbtdrxLPAICQ-32" style="edgeStyle=orthogonalEdgeStyle;rounded=0;orthogonalLoop=1;jettySize=auto;html=1;exitX=0.25;exitY=1;exitDx=0;exitDy=0;entryX=0.5;entryY=0;entryDx=0;entryDy=0;startArrow=classic;startFill=1;" parent="1" source="bN0t6ZyWwbtdrxLPAICQ-2" target="bN0t6ZyWwbtdrxLPAICQ-3" edge="1">
          <mxGeometry relative="1" as="geometry" />
        </mxCell>
        <mxCell id="bN0t6ZyWwbtdrxLPAICQ-35" value="同步音频数据" style="edgeLabel;html=1;align=center;verticalAlign=middle;resizable=0;points=[];" parent="bN0t6ZyWwbtdrxLPAICQ-32" vertex="1" connectable="0">
          <mxGeometry x="-0.0743" y="-1" relative="1" as="geometry">
            <mxPoint as="offset" />
          </mxGeometry>
        </mxCell>
        <mxCell id="bN0t6ZyWwbtdrxLPAICQ-34" style="edgeStyle=orthogonalEdgeStyle;rounded=0;orthogonalLoop=1;jettySize=auto;html=1;exitX=0;exitY=0.5;exitDx=0;exitDy=0;" parent="1" source="bN0t6ZyWwbtdrxLPAICQ-2" target="bN0t6ZyWwbtdrxLPAICQ-4" edge="1">
          <mxGeometry relative="1" as="geometry" />
        </mxCell>
        <mxCell id="bN0t6ZyWwbtdrxLPAICQ-41" value="请求模块" style="edgeLabel;html=1;align=center;verticalAlign=middle;resizable=0;points=[];" parent="bN0t6ZyWwbtdrxLPAICQ-34" vertex="1" connectable="0">
          <mxGeometry x="0.1189" relative="1" as="geometry">
            <mxPoint as="offset" />
          </mxGeometry>
        </mxCell>
        <mxCell id="bN0t6ZyWwbtdrxLPAICQ-43" style="edgeStyle=orthogonalEdgeStyle;rounded=0;orthogonalLoop=1;jettySize=auto;html=1;exitX=0.75;exitY=1;exitDx=0;exitDy=0;entryX=0.5;entryY=0;entryDx=0;entryDy=0;" parent="1" source="bN0t6ZyWwbtdrxLPAICQ-2" target="bN0t6ZyWwbtdrxLPAICQ-42" edge="1">
          <mxGeometry relative="1" as="geometry" />
        </mxCell>
        <mxCell id="bN0t6ZyWwbtdrxLPAICQ-44" value="消息可以被点击触发" style="edgeLabel;html=1;align=center;verticalAlign=middle;resizable=0;points=[];" parent="bN0t6ZyWwbtdrxLPAICQ-43" vertex="1" connectable="0">
          <mxGeometry x="-0.0833" y="1" relative="1" as="geometry">
            <mxPoint as="offset" />
          </mxGeometry>
        </mxCell>
        <mxCell id="bN0t6ZyWwbtdrxLPAICQ-2" value="聊天管理" style="rounded=0;whiteSpace=wrap;html=1;" parent="1" vertex="1">
          <mxGeometry x="150" y="340" width="120" height="60" as="geometry" />
        </mxCell>
        <mxCell id="bN0t6ZyWwbtdrxLPAICQ-14" style="edgeStyle=orthogonalEdgeStyle;rounded=0;orthogonalLoop=1;jettySize=auto;html=1;exitX=0.5;exitY=1;exitDx=0;exitDy=0;entryX=0;entryY=0.75;entryDx=0;entryDy=0;" parent="1" source="bN0t6ZyWwbtdrxLPAICQ-3" target="bN0t6ZyWwbtdrxLPAICQ-1" edge="1">
          <mxGeometry relative="1" as="geometry">
            <Array as="points">
              <mxPoint x="70" y="550" />
              <mxPoint x="-260" y="550" />
              <mxPoint x="-260" y="155" />
            </Array>
          </mxGeometry>
        </mxCell>
        <mxCell id="bN0t6ZyWwbtdrxLPAICQ-15" value="请求发送音视频消息" style="edgeLabel;html=1;align=center;verticalAlign=middle;resizable=0;points=[];" parent="bN0t6ZyWwbtdrxLPAICQ-14" vertex="1" connectable="0">
          <mxGeometry x="0.4292" y="-2" relative="1" as="geometry">
            <mxPoint as="offset" />
          </mxGeometry>
        </mxCell>
        <mxCell id="bN0t6ZyWwbtdrxLPAICQ-3" value="音视频管理" style="rounded=0;whiteSpace=wrap;html=1;" parent="1" vertex="1">
          <mxGeometry x="10" y="470" width="120" height="60" as="geometry" />
        </mxCell>
        <mxCell id="bN0t6ZyWwbtdrxLPAICQ-24" style="edgeStyle=orthogonalEdgeStyle;rounded=0;orthogonalLoop=1;jettySize=auto;html=1;exitX=0;exitY=0.5;exitDx=0;exitDy=0;entryX=0.5;entryY=1;entryDx=0;entryDy=0;" parent="1" source="bN0t6ZyWwbtdrxLPAICQ-4" target="bN0t6ZyWwbtdrxLPAICQ-1" edge="1">
          <mxGeometry relative="1" as="geometry" />
        </mxCell>
        <mxCell id="bN0t6ZyWwbtdrxLPAICQ-38" value="请求发送文件" style="edgeLabel;html=1;align=center;verticalAlign=middle;resizable=0;points=[];" parent="bN0t6ZyWwbtdrxLPAICQ-24" vertex="1" connectable="0">
          <mxGeometry x="0.1548" y="1" relative="1" as="geometry">
            <mxPoint as="offset" />
          </mxGeometry>
        </mxCell>
        <mxCell id="bN0t6ZyWwbtdrxLPAICQ-4" value="文件管理" style="rounded=0;whiteSpace=wrap;html=1;" parent="1" vertex="1">
          <mxGeometry x="-90" y="340" width="120" height="60" as="geometry" />
        </mxCell>
        <mxCell id="bN0t6ZyWwbtdrxLPAICQ-5" value="本地存储" style="rounded=0;whiteSpace=wrap;html=1;" parent="1" vertex="1">
          <mxGeometry x="390" y="110" width="120" height="60" as="geometry" />
        </mxCell>
        <mxCell id="bN0t6ZyWwbtdrxLPAICQ-9" style="edgeStyle=orthogonalEdgeStyle;rounded=0;orthogonalLoop=1;jettySize=auto;html=1;exitX=0;exitY=0.5;exitDx=0;exitDy=0;entryX=1;entryY=0.5;entryDx=0;entryDy=0;" parent="1" source="bN0t6ZyWwbtdrxLPAICQ-6" target="bN0t6ZyWwbtdrxLPAICQ-2" edge="1">
          <mxGeometry relative="1" as="geometry" />
        </mxCell>
        <mxCell id="bN0t6ZyWwbtdrxLPAICQ-20" value="请求发送表情消息" style="edgeLabel;html=1;align=center;verticalAlign=middle;resizable=0;points=[];" parent="bN0t6ZyWwbtdrxLPAICQ-9" vertex="1" connectable="0">
          <mxGeometry x="-0.025" y="-1" relative="1" as="geometry">
            <mxPoint as="offset" />
          </mxGeometry>
        </mxCell>
        <mxCell id="bN0t6ZyWwbtdrxLPAICQ-59" style="edgeStyle=orthogonalEdgeStyle;rounded=0;orthogonalLoop=1;jettySize=auto;html=1;entryX=0.5;entryY=1;entryDx=0;entryDy=0;endArrow=classic;endFill=1;exitX=0.5;exitY=0;exitDx=0;exitDy=0;startArrow=classic;startFill=1;" parent="1" source="bN0t6ZyWwbtdrxLPAICQ-6" target="bN0t6ZyWwbtdrxLPAICQ-5" edge="1">
          <mxGeometry relative="1" as="geometry">
            <mxPoint x="450" y="330" as="sourcePoint" />
          </mxGeometry>
        </mxCell>
        <mxCell id="bN0t6ZyWwbtdrxLPAICQ-61" value="表情数据同步" style="edgeLabel;html=1;align=center;verticalAlign=middle;resizable=0;points=[];" parent="bN0t6ZyWwbtdrxLPAICQ-59" vertex="1" connectable="0">
          <mxGeometry x="0.1694" relative="1" as="geometry">
            <mxPoint y="-1" as="offset" />
          </mxGeometry>
        </mxCell>
        <mxCell id="bN0t6ZyWwbtdrxLPAICQ-6" value="表情管理" style="rounded=0;whiteSpace=wrap;html=1;" parent="1" vertex="1">
          <mxGeometry x="390" y="340" width="120" height="60" as="geometry" />
        </mxCell>
        <mxCell id="bN0t6ZyWwbtdrxLPAICQ-42" value="系统交互" style="rounded=0;whiteSpace=wrap;html=1;" parent="1" vertex="1">
          <mxGeometry x="500" y="470" width="120" height="60" as="geometry" />
        </mxCell>
        <mxCell id="bN0t6ZyWwbtdrxLPAICQ-53" style="edgeStyle=orthogonalEdgeStyle;rounded=0;orthogonalLoop=1;jettySize=auto;html=1;exitX=0.5;exitY=1;exitDx=0;exitDy=0;entryX=0.75;entryY=0;entryDx=0;entryDy=0;endArrow=classic;endFill=1;startArrow=classic;startFill=1;" parent="1" source="bN0t6ZyWwbtdrxLPAICQ-47" target="bN0t6ZyWwbtdrxLPAICQ-5" edge="1">
          <mxGeometry relative="1" as="geometry" />
        </mxCell>
        <mxCell id="bN0t6ZyWwbtdrxLPAICQ-55" value="设置数据同步" style="edgeLabel;html=1;align=center;verticalAlign=middle;resizable=0;points=[];" parent="bN0t6ZyWwbtdrxLPAICQ-53" vertex="1" connectable="0">
          <mxGeometry x="-0.1694" relative="1" as="geometry">
            <mxPoint y="8" as="offset" />
          </mxGeometry>
        </mxCell>
        <mxCell id="bN0t6ZyWwbtdrxLPAICQ-47" value="设置与偏好" style="rounded=0;whiteSpace=wrap;html=1;" parent="1" vertex="1">
          <mxGeometry x="420" y="-100" width="120" height="60" as="geometry" />
        </mxCell>
        <mxCell id="bN0t6ZyWwbtdrxLPAICQ-63" style="edgeStyle=orthogonalEdgeStyle;rounded=0;orthogonalLoop=1;jettySize=auto;html=1;exitX=0.5;exitY=1;exitDx=0;exitDy=0;entryX=0.5;entryY=0;entryDx=0;entryDy=0;endArrow=classic;endFill=1;startArrow=classic;startFill=1;" parent="1" source="bN0t6ZyWwbtdrxLPAICQ-62" target="bN0t6ZyWwbtdrxLPAICQ-1" edge="1">
          <mxGeometry relative="1" as="geometry" />
        </mxCell>
        <mxCell id="bN0t6ZyWwbtdrxLPAICQ-64" value="请求登录" style="edgeLabel;html=1;align=center;verticalAlign=middle;resizable=0;points=[];" parent="bN0t6ZyWwbtdrxLPAICQ-63" vertex="1" connectable="0">
          <mxGeometry x="-0.0333" y="1" relative="1" as="geometry">
            <mxPoint as="offset" />
          </mxGeometry>
        </mxCell>
        <mxCell id="bN0t6ZyWwbtdrxLPAICQ-66" style="edgeStyle=orthogonalEdgeStyle;rounded=0;orthogonalLoop=1;jettySize=auto;html=1;exitX=1;exitY=0.5;exitDx=0;exitDy=0;entryX=0.25;entryY=0;entryDx=0;entryDy=0;endArrow=classic;endFill=1;startArrow=classic;startFill=1;" parent="1" source="bN0t6ZyWwbtdrxLPAICQ-62" target="bN0t6ZyWwbtdrxLPAICQ-5" edge="1">
          <mxGeometry relative="1" as="geometry" />
        </mxCell>
        <mxCell id="bN0t6ZyWwbtdrxLPAICQ-67" value="登录数据同步" style="edgeLabel;html=1;align=center;verticalAlign=middle;resizable=0;points=[];" parent="bN0t6ZyWwbtdrxLPAICQ-66" vertex="1" connectable="0">
          <mxGeometry x="-0.219" y="2" relative="1" as="geometry">
            <mxPoint x="-58" y="2" as="offset" />
          </mxGeometry>
        </mxCell>
        <mxCell id="bN0t6ZyWwbtdrxLPAICQ-62" value="用户管理" style="rounded=0;whiteSpace=wrap;html=1;" parent="1" vertex="1">
          <mxGeometry x="-180" y="-50" width="120" height="60" as="geometry" />
        </mxCell>
        <mxCell id="bN0t6ZyWwbtdrxLPAICQ-75" style="edgeStyle=orthogonalEdgeStyle;rounded=0;orthogonalLoop=1;jettySize=auto;html=1;exitX=0;exitY=0.5;exitDx=0;exitDy=0;entryX=0;entryY=0.25;entryDx=0;entryDy=0;endArrow=classic;endFill=1;startArrow=classic;startFill=1;" parent="1" source="bN0t6ZyWwbtdrxLPAICQ-71" target="bN0t6ZyWwbtdrxLPAICQ-1" edge="1">
          <mxGeometry relative="1" as="geometry">
            <Array as="points">
              <mxPoint x="-260" y="-150" />
              <mxPoint x="-260" y="125" />
            </Array>
          </mxGeometry>
        </mxCell>
        <mxCell id="bN0t6ZyWwbtdrxLPAICQ-76" value="好友数据同步" style="edgeLabel;html=1;align=center;verticalAlign=middle;resizable=0;points=[];" parent="bN0t6ZyWwbtdrxLPAICQ-75" vertex="1" connectable="0">
          <mxGeometry x="-0.4611" relative="1" as="geometry">
            <mxPoint as="offset" />
          </mxGeometry>
        </mxCell>
        <mxCell id="bN0t6ZyWwbtdrxLPAICQ-77" style="edgeStyle=orthogonalEdgeStyle;rounded=0;orthogonalLoop=1;jettySize=auto;html=1;exitX=1;exitY=0.75;exitDx=0;exitDy=0;entryX=1;entryY=0.5;entryDx=0;entryDy=0;endArrow=classic;endFill=1;startArrow=classic;startFill=1;" parent="1" source="bN0t6ZyWwbtdrxLPAICQ-71" target="bN0t6ZyWwbtdrxLPAICQ-5" edge="1">
          <mxGeometry relative="1" as="geometry">
            <Array as="points">
              <mxPoint x="590" y="-135" />
              <mxPoint x="590" y="140" />
            </Array>
          </mxGeometry>
        </mxCell>
        <mxCell id="bN0t6ZyWwbtdrxLPAICQ-78" value="同步好友数据" style="edgeLabel;html=1;align=center;verticalAlign=middle;resizable=0;points=[];" parent="bN0t6ZyWwbtdrxLPAICQ-77" vertex="1" connectable="0">
          <mxGeometry x="-0.5263" y="3" relative="1" as="geometry">
            <mxPoint as="offset" />
          </mxGeometry>
        </mxCell>
        <mxCell id="bN0t6ZyWwbtdrxLPAICQ-79" style="edgeStyle=orthogonalEdgeStyle;rounded=0;orthogonalLoop=1;jettySize=auto;html=1;exitX=1;exitY=0.25;exitDx=0;exitDy=0;entryX=1;entryY=0.5;entryDx=0;entryDy=0;" parent="1" source="bN0t6ZyWwbtdrxLPAICQ-71" target="bN0t6ZyWwbtdrxLPAICQ-42" edge="1">
          <mxGeometry relative="1" as="geometry" />
        </mxCell>
        <mxCell id="bN0t6ZyWwbtdrxLPAICQ-80" value="通知好友变更" style="edgeLabel;html=1;align=center;verticalAlign=middle;resizable=0;points=[];" parent="bN0t6ZyWwbtdrxLPAICQ-79" vertex="1" connectable="0">
          <mxGeometry x="-0.7025" y="-2" relative="1" as="geometry">
            <mxPoint x="3" as="offset" />
          </mxGeometry>
        </mxCell>
        <mxCell id="UJu6GkZddEfuNSULF59j-6" style="edgeStyle=orthogonalEdgeStyle;rounded=0;orthogonalLoop=1;jettySize=auto;html=1;exitX=0.5;exitY=0;exitDx=0;exitDy=0;entryX=0.5;entryY=1;entryDx=0;entryDy=0;" parent="1" source="bN0t6ZyWwbtdrxLPAICQ-71" target="bN0t6ZyWwbtdrxLPAICQ-2" edge="1">
          <mxGeometry relative="1" as="geometry">
            <Array as="points">
              <mxPoint x="210" y="-200" />
              <mxPoint x="700" y="-200" />
              <mxPoint x="700" y="560" />
              <mxPoint x="210" y="560" />
            </Array>
          </mxGeometry>
        </mxCell>
        <mxCell id="UJu6GkZddEfuNSULF59j-7" value="请求创建聊天" style="edgeLabel;html=1;align=center;verticalAlign=middle;resizable=0;points=[];" parent="UJu6GkZddEfuNSULF59j-6" vertex="1" connectable="0">
          <mxGeometry x="-0.7504" y="1" relative="1" as="geometry">
            <mxPoint as="offset" />
          </mxGeometry>
        </mxCell>
        <mxCell id="bN0t6ZyWwbtdrxLPAICQ-71" value="好友管理" style="rounded=0;whiteSpace=wrap;html=1;" parent="1" vertex="1">
          <mxGeometry x="150" y="-180" width="120" height="60" as="geometry" />
        </mxCell>
      </root>
    </mxGraphModel>
  </diagram>
</mxfile>
